<svg xmlns="http://www.w3.org/2000/svg" viewBox="0 0 221.63 23.02"><defs><style>.cls-1{fill:#fff;}.cls-2{fill:#00a0e2;}</style></defs><g id="Layer_2" data-name="Layer 2"><g id="REDESIGN"><path class="cls-1" d="M5.82,0a10,10,0,0,1,4.8,1.25V4.17a9.43,9.43,0,0,0-4.7-1.59A3.43,3.43,0,0,0,4,3.06a1.48,1.48,0,0,0-.7,1.29c0,.64.44,1.23,1.31,1.78.24.16,1.18.62,2.82,1.37a7.94,7.94,0,0,1,3,2.19,4.65,4.65,0,0,1,.93,2.91,4.41,4.41,0,0,1-1.58,3.54,6.08,6.08,0,0,1-4.09,1.35,9.76,9.76,0,0,1-2.82-.36A12.19,12.19,0,0,1,.22,15.89V12.65a8.3,8.3,0,0,0,5.15,2.27,3.29,3.29,0,0,0,2-.53A1.62,1.62,0,0,0,8.07,13a2.2,2.2,0,0,0-1.3-1.93c-.71-.39-1.64-.86-2.77-1.4A8,8,0,0,1,1,7.53,4.31,4.31,0,0,1,0,4.7,4.14,4.14,0,0,1,1.6,1.28,6.57,6.57,0,0,1,5.82,0Z"/><path class="cls-1" d="M16.36.22V17.27h-3V.22Zm8.27,5.65L20,11.5l5.2,5.77H21.4l-5-5.77,4.7-5.63Z"/><path class="cls-1" d="M28.58,5.87,31.27,12,34,5.87h3.22L29.36,23H26.13l3.63-7.85-4.43-9.3Z"/><path class="cls-1" d="M46.78.22l7.53,17.05H50.83l-1.77-4.15H41.48l-1.65,4.15H36.38l7-17Zm-4.3,10.4H48L45.11,3.87Z"/><path class="cls-1" d="M56.06,5.87l2.65,6.58L61.4,5.87h2L66,12.45l2.65-6.58H71.8L66.73,17.49H65.46l-3.08-7-3.08,7H58.06L52.93,5.87Z"/><path class="cls-1" d="M76.91,5.65a5.18,5.18,0,0,1,3.35.94,3.13,3.13,0,0,1,1.16,2.6v5.58c0,.43.18.65.53.65a1.69,1.69,0,0,0,.61-.19,2.59,2.59,0,0,0,.67-.44v1.74a5.64,5.64,0,0,1-2.88,1,2.35,2.35,0,0,1-1.24-.27,1.42,1.42,0,0,1-.6-.95,5.91,5.91,0,0,1-3.46,1.22,3,3,0,0,1-2.12-.83,2.61,2.61,0,0,1-.88-2,3.09,3.09,0,0,1,.88-2.33A7.51,7.51,0,0,1,76,10.85l2.43-.71V9.62c0-1.12-.67-1.67-2-1.67a5,5,0,0,0-2.07.47,5.88,5.88,0,0,0-1.86,1.41V7.13A6.89,6.89,0,0,1,76.91,5.65Zm-1.83,8.57a1.32,1.32,0,0,0,.39,1,1.39,1.39,0,0,0,1,.38,3,3,0,0,0,2-.9v-3a14.93,14.93,0,0,0-2,.81,3.61,3.61,0,0,0-1,.77A1.43,1.43,0,0,0,75.08,14.22Z"/><path class="cls-1" d="M91.4,5.65a2.78,2.78,0,0,1,1.18.27,6.79,6.79,0,0,1,1.34.9L92.85,9.45a4,4,0,0,0-2.1-1A2.22,2.22,0,0,0,89.38,9a3.63,3.63,0,0,0-1.09,1.37,4,4,0,0,0-.41,1.71v5.2h-3V5.87h3V8.78h.05a7.86,7.86,0,0,1,1.65-2.39A2.69,2.69,0,0,1,91.4,5.65Z"/><path class="cls-1" d="M99.93,5.65a5.12,5.12,0,0,1,4,1.61,6.38,6.38,0,0,1,1.47,4.46v.45H97.31a3.5,3.5,0,0,0,1.14,2.35,3.89,3.89,0,0,0,2.63.82,5.87,5.87,0,0,0,2.07-.37,8.78,8.78,0,0,0,2-1.13v2.24a8.19,8.19,0,0,1-4.85,1.41,6.15,6.15,0,0,1-4.41-1.62,5.67,5.67,0,0,1-1.71-4.32A5.9,5.9,0,0,1,95.81,7.3,5.45,5.45,0,0,1,99.93,5.65Zm2.62,4.7a3.32,3.32,0,0,0-.75-1.95,2.27,2.27,0,0,0-1.75-.7,2.52,2.52,0,0,0-1.82.67,3.38,3.38,0,0,0-.88,2Z"/><path class="cls-2" d="M122.7.22l7.53,17.05h-3.48L125,13.12H117.4l-1.65,4.15H112.3l7-17Zm-4.3,10.4h5.5L121,3.87Z"/><path class="cls-2" d="M138,5.65a3.76,3.76,0,0,1,2.92,1.2A4.54,4.54,0,0,1,142,10v7.25h-3V10.33a2.72,2.72,0,0,0-.53-1.76A1.78,1.78,0,0,0,137,7.92a2.3,2.3,0,0,0-1.3.41,6.16,6.16,0,0,0-1.35,1.36v7.58h-3V5.87h3v1.6a5.47,5.47,0,0,1,1.71-1.4A4.3,4.3,0,0,1,138,5.65Z"/><path class="cls-2" d="M146.15,5.87,148.84,12l2.74-6.13h3.22L146.93,23h-3.22l3.62-7.85-4.43-9.3Z"/><path class="cls-2" d="M159,5.87l2.65,6.58,2.7-6.58h1.95l2.67,6.58,2.65-6.58h3.13l-5.08,11.62h-1.27l-3.08-7-3.07,7H161L155.83,5.87Z"/><path class="cls-2" d="M178.7.22V7.47h.08a4.35,4.35,0,0,1,3.5-1.82,3.81,3.81,0,0,1,2.93,1.2A4.41,4.41,0,0,1,186.32,10v7.3h-3V10.55a2.85,2.85,0,0,0-.54-1.83A1.82,1.82,0,0,0,181.3,8a2.25,2.25,0,0,0-1.28.4,5.8,5.8,0,0,0-1.32,1.29v7.54h-3V.22Z"/><path class="cls-2" d="M193.33,5.65a5.14,5.14,0,0,1,4,1.61,6.38,6.38,0,0,1,1.46,4.46v.45H190.7a3.55,3.55,0,0,0,1.15,2.35,3.87,3.87,0,0,0,2.63.82,5.78,5.78,0,0,0,2.06-.37,8.83,8.83,0,0,0,2.06-1.13v2.24a8.2,8.2,0,0,1-4.86,1.41,6.14,6.14,0,0,1-4.4-1.62,5.67,5.67,0,0,1-1.71-4.32,5.85,5.85,0,0,1,1.58-4.25A5.45,5.45,0,0,1,193.33,5.65Zm2.62,4.7a3.32,3.32,0,0,0-.75-1.95,2.28,2.28,0,0,0-1.75-.7,2.5,2.5,0,0,0-1.82.67,3.38,3.38,0,0,0-.88,2Z"/><path class="cls-2" d="M207.65,5.65a2.78,2.78,0,0,1,1.18.27,6.79,6.79,0,0,1,1.34.9L209.1,9.45a4,4,0,0,0-2.1-1,2.22,2.22,0,0,0-1.37.52,3.63,3.63,0,0,0-1.09,1.37,4,4,0,0,0-.41,1.71v5.2h-3V5.87h3V8.78h.05a7.86,7.86,0,0,1,1.65-2.39A2.69,2.69,0,0,1,207.65,5.65Z"/><path class="cls-2" d="M216.18,5.65a5.12,5.12,0,0,1,4,1.61,6.38,6.38,0,0,1,1.46,4.46v.45h-8.06a3.5,3.5,0,0,0,1.14,2.35,3.89,3.89,0,0,0,2.63.82A5.87,5.87,0,0,0,219.4,15a8.78,8.78,0,0,0,2-1.13v2.24a8.19,8.19,0,0,1-4.85,1.41,6.15,6.15,0,0,1-4.41-1.62,5.67,5.67,0,0,1-1.71-4.32,5.9,5.9,0,0,1,1.58-4.25A5.45,5.45,0,0,1,216.18,5.65Zm2.62,4.7a3.32,3.32,0,0,0-.75-1.95,2.28,2.28,0,0,0-1.75-.7,2.52,2.52,0,0,0-1.82.67,3.38,3.38,0,0,0-.88,2Z"/></g></g></svg>